PathFileType	4	(X/Y/Z)	OpenSim_Sub04_EMGBaseline_Magnet.trc
DataRate	CameraRate	NumFrames	NumMarkers	Units	OrigDataRate	OrigDataStartFrame	OrigNumFrames
100	100	33	8	m	100	1986	7941
Frame#	Time	torso_imu_offset_imu	pelvis_imu_offset_imu	tibia_r_imu_offset_imu	femur_r_imu_offset_imu	tibia_l_imu_offset_imu	femur_l_imu_offset_imu	toes_r_imu_offset_imu	toes_l_imu_offset_imu
				X1	Y1	Z1	X2	Y2	Z2	X3	Y3	Z3	X4	Y4	Z4	X5	Y5	Z5	X6	Y6	Z6	X7	Y7	Z7	X8		Y8	Z8	

1986	19.85000000	0.92921068	0.11678877	-0.15906225	-0.61947508	0.14398079	-0.66726419	-0.20778354	-0.78889593	-0.12709960	-0.71657482	-0.42125006	0.14116808	-0.72754572	0.27116245	0.19884302	-0.73062961	0.09637956	0.36795275	-0.77230705	-0.27273435	-0.21298108	-0.58475234	-0.35341445	-0.42112703
1987	19.86000000	0.93266068	0.12177549	-0.16559964	-0.62349885	0.14402375	-0.66197238	-0.18534387	-0.79246834	-0.12756248	-0.71623717	-0.42043321	0.14088548	-0.72415136	0.27191199	0.20275218	-0.72519270	0.10459087	0.37149964	-0.78007903	-0.27809227	-0.19210070	-0.59428220	-0.35229841	-0.41424532
1988	19.87000000	0.93039392	0.11997967	-0.16835292	-0.62178126	0.14834340	-0.66592248	-0.17043705	-0.80220466	-0.12159337	-0.71676192	-0.41495350	0.13660090	-0.72654926	0.27233982	0.21680277	-0.72118702	0.10983019	0.37415887	-0.78830287	-0.28805455	-0.16948201	-0.60492862	-0.35000098	-0.39710742
1989	19.88000000	0.93031422	0.12429387	-0.16766978	-0.62601832	0.15046717	-0.65783686	-0.15147737	-0.79957976	-0.12667202	-0.71926932	-0.41790589	0.13968251	-0.72220693	0.27086531	0.21365618	-0.71618818	0.11275968	0.38177152	-0.79565489	-0.30476483	-0.13708185	-0.61116701	-0.35617945	-0.37874500
1990	19.89000000	0.92721529	0.12720585	-0.17369255	-0.62673841	0.15136975	-0.65486926	-0.13882026	-0.79865432	-0.12572461	-0.72328799	-0.41618839	0.13790683	-0.71455851	0.28698671	0.21866706	-0.71066920	0.11868858	0.38589312	-0.79833712	-0.31623439	-0.10233371	-0.61788994	-0.35379710	-0.36309034
1991	19.90000000	0.92381402	0.13579771	-0.17512872	-0.62981863	0.14709470	-0.65371464	-0.12544706	-0.81039428	-0.12303611	-0.72558624	-0.40790164	0.13017256	-0.71254739	0.29490356	0.22829975	-0.71147863	0.12189132	0.38647535	-0.79906801	-0.32716488	-0.06368796	-0.62147385	-0.35604510	-0.35907737
1992	19.91000000	0.92607479	0.13848720	-0.18390098	-0.62894894	0.14484499	-0.64689835	-0.10024764	-0.80936722	-0.12093538	-0.73127805	-0.40061804	0.12015775	-0.70565615	0.30320628	0.24083943	-0.71090451	0.12594975	0.39404062	-0.80205150	-0.33927163	-0.02876092	-0.62430920	-0.35327658	-0.35333094
1993	19.92000000	0.92557289	0.13630914	-0.18135950	-0.63766875	0.14398773	-0.64435034	-0.07875034	-0.81185215	-0.11438055	-0.74237656	-0.38858740	0.11269219	-0.69896309	0.31113917	0.24516232	-0.70919082	0.11769371	0.38562970	-0.79667763	-0.34989411	0.01168186	-0.62779971	-0.34834829	-0.35590344
1994	19.93000000	0.92633528	0.14004558	-0.17947104	-0.63859278	0.14723337	-0.64064681	-0.05497300	-0.81461769	-0.10497371	-0.74970199	-0.37984892	0.11789938	-0.68987328	0.32672304	0.24813016	-0.71121431	0.12048549	0.39768142	-0.79266165	-0.36165680	0.04395625	-0.62640209	-0.34578227	-0.34862952
1995	19.94000000	0.92704914	0.14521510	-0.18529456	-0.63846908	0.14263082	-0.64291370	-0.04025272	-0.82035391	-0.10378276	-0.75172654	-0.36545769	0.11431625	-0.68271007	0.33673405	0.25803791	-0.70813800	0.11764614	0.39185657	-0.78716970	-0.37052434	0.08603833	-0.63052742	-0.34951458	-0.34067307
1996	19.95000000	0.92002178	0.14223407	-0.17974819	-0.64201831	0.14043800	-0.63972278	-0.01830235	-0.81966100	-0.09217787	-0.75839753	-0.35522891	0.10342662	-0.67994774	0.34552871	0.25965925	-0.70375614	0.11569333	0.40410060	-0.77678412	-0.38182929	0.11687414	-0.63056072	-0.34405873	-0.35034820
1997	19.96000000	0.91695998	0.14735305	-0.17874785	-0.64688026	0.13252129	-0.63472599	0.00439857	-0.81994610	-0.08548164	-0.76964128	-0.34261571	0.10423645	-0.67092294	0.35419793	0.26559898	-0.70248551	0.11412037	0.40378088	-0.76640068	-0.38864902	0.14281554	-0.63350585	-0.34409929	-0.34798054
1998	19.97000000	0.91925267	0.16139905	-0.17935986	-0.64493808	0.12343393	-0.63335219	0.02107566	-0.81949862	-0.07311785	-0.77009230	-0.32673792	0.10686435	-0.66511326	0.36347795	0.26712099	-0.70458369	0.11679532	0.40320605	-0.74810298	-0.40352570	0.17707315	-0.63435010	-0.35000806	-0.34077194
1999	19.98000000	0.91730956	0.16115964	-0.17915309	-0.65265587	0.12474160	-0.63434389	0.03249106	-0.82105227	-0.06422517	-0.77714535	-0.30963087	0.11252221	-0.66098809	0.37413118	0.27132552	-0.70170814	0.11860074	0.40983413	-0.73687464	-0.41467345	0.20460791	-0.63295953	-0.35018304	-0.33868950
2000	19.99000000	0.91294863	0.16033464	-0.17638575	-0.65389690	0.12653753	-0.62791499	0.04813715	-0.82558673	-0.06342767	-0.78212366	-0.29870463	0.11132354	-0.65716051	0.37952444	0.27193148	-0.70032316	0.12193690	0.41145960	-0.71770330	-0.42235878	0.22500378	-0.63363793	-0.35440285	-0.34148090
2001	20	0.91865152	0.16748488	-0.17523973	-0.64999967	0.12583253	-0.63176545	0.05705343	-0.81819335	-0.05387787	-0.79021376	-0.28299246	0.11061674	-0.65500778	0.38540892	0.27016892	-0.69967719	0.13077022	0.41374428	-0.70741777	-0.42757159	0.24242649	-0.63119776	-0.35399884	-0.33141978
2002	20.01000000	0.91633643	0.16961008	-0.17432792	-0.65984218	0.12510450	-0.63125977	0.07305903	-0.81529844	-0.04829446	-0.79257747	-0.27450162	0.11123977	-0.64991521	0.39515092	0.27407365	-0.69640752	0.13677510	0.41238128	-0.70294589	-0.42958513	0.25211375	-0.63953968	-0.35783799	-0.32952296
2003	20.02000000	0.91841374	0.16590762	-0.17121391	-0.65460240	0.13129761	-0.62358747	0.07786277	-0.81530207	-0.04702724	-0.80043147	-0.25973909	0.11477703	-0.64441225	0.40173183	0.27320451	-0.69487942	0.14073051	0.40884089	-0.69101321	-0.43009509	0.26318012	-0.63546250	-0.36328462	-0.33335213
2004	20.03000000	0.91588009	0.17212021	-0.17498727	-0.65551153	0.13012780	-0.62961363	0.08181894	-0.81272779	-0.05016608	-0.80828279	-0.24770497	0.11382878	-0.64148039	0.42151286	0.27219252	-0.68444920	0.14644990	0.41430057	-0.68064593	-0.42365167	0.27214702	-0.63499987	-0.36012676	-0.33058658
2005	20.04000000	0.91633498	0.17902583	-0.17114824	-0.65497192	0.12813748	-0.63021127	0.08628026	-0.81192089	-0.05447890	-0.80939791	-0.23206203	0.11340454	-0.63439213	0.42403155	0.27249915	-0.69087618	0.15716123	0.41770998	-0.67872240	-0.42256670	0.27364232	-0.63879493	-0.36244353	-0.33177400
2006	20.05000000	0.91496576	0.17594131	-0.16933227	-0.65247949	0.12897272	-0.62510900	0.08582297	-0.81206506	-0.05946053	-0.80877547	-0.21675086	0.11311796	-0.63571337	0.42187866	0.27824695	-0.69491679	0.15944383	0.41750738	-0.67560960	-0.41891583	0.27516761	-0.63544100	-0.37009799	-0.33233643
2007	20.06000000	0.91245773	0.18124546	-0.16347845	-0.65139629	0.13020575	-0.62396892	0.07537937	-0.80504559	-0.06234083	-0.81629268	-0.20579312	0.11172290	-0.62600810	0.43338503	0.27933051	-0.68091227	0.15765196	0.42094058	-0.67780478	-0.41160985	0.27271351	-0.63814363	-0.36669484	-0.32560129
2008	20.07000000	0.91753193	0.18803822	-0.17111364	-0.65679763	0.12907454	-0.62277955	0.07139722	-0.81255250	-0.05832054	-0.82254441	-0.18939658	0.10679399	-0.62475732	0.43630681	0.27406774	-0.68704223	0.16439777	0.42733905	-0.67848558	-0.40908362	0.26571629	-0.64470177	-0.36889224	-0.32347558
2009	20.08000000	0.91021661	0.18202156	-0.16171485	-0.66214353	0.13556362	-0.62015615	0.06335995	-0.81289654	-0.06342955	-0.82673626	-0.18041506	0.10744226	-0.62622031	0.43912686	0.28123530	-0.68283557	0.17251079	0.42904844	-0.68213035	-0.40032322	0.25061698	-0.63798066	-0.37352410	-0.31944616
2010	20.09000000	0.90993036	0.19383365	-0.16305187	-0.65909962	0.14021210	-0.62722187	0.05518129	-0.81187014	-0.06584652	-0.82797410	-0.17124311	0.10857774	-0.61416850	0.44295956	0.28216660	-0.67690922	0.17005837	0.43136957	-0.68020841	-0.39213880	0.24831567	-0.64404286	-0.37034012	-0.31993403
2011	20.10000000	0.91628178	0.18927717	-0.16016872	-0.65861958	0.14565075	-0.62653719	0.03943859	-0.81210127	-0.07297733	-0.82747215	-0.15570501	0.10177383	-0.61656525	0.44636066	0.28109383	-0.67502030	0.17987384	0.43355769	-0.68328657	-0.38437014	0.23446315	-0.64793141	-0.37633871	-0.31974414
2012	20.11000000	0.91427901	0.19730422	-0.15803024	-0.65886891	0.14553631	-0.62675842	0.02986136	-0.80536533	-0.07636817	-0.83422265	-0.14339854	0.09708459	-0.61021542	0.45439338	0.28084712	-0.67108517	0.17793097	0.43566777	-0.68865494	-0.37469964	0.22230111	-0.65322156	-0.37118263	-0.31625260
2013	20.12000000	0.91095530	0.20241307	-0.15376759	-0.65496897	0.14752974	-0.62668311	0.00771564	-0.81214499	-0.07336886	-0.83553738	-0.13863169	0.10346329	-0.60947142	0.45326142	0.28800999	-0.67161090	0.18803232	0.43824271	-0.69649369	-0.36154995	0.20870216	-0.65538965	-0.37352883	-0.31428217
2014	20.13000000	0.91322719	0.20120027	-0.15254407	-0.66185118	0.14760524	-0.62676510	-0.01281766	-0.81098656	-0.07151276	-0.83941085	-0.12655728	0.09923537	-0.60428118	0.45807222	0.28039981	-0.66876925	0.19288256	0.44274317	-0.69811612	-0.35555493	0.18822366	-0.65261943	-0.37831966	-0.31848059
2015	20.14000000	0.91354270	0.20051697	-0.15499063	-0.65279896	0.15301440	-0.62692823	-0.03777048	-0.80579945	-0.07280280	-0.84409910	-0.11962588	0.09467984	-0.60910406	0.46689291	0.28066660	-0.66487340	0.19285949	0.44363047	-0.70401431	-0.34486822	0.16232926	-0.65776767	-0.37433720	-0.30812110
2016	20.15000000	0.91441078	0.20693331	-0.15399516	-0.65081919	0.15857044	-0.62753082	-0.06526485	-0.80139467	-0.07338359	-0.83772839	-0.10450135	0.09271854	-0.60594768	0.46583995	0.27800831	-0.66189094	0.19899919	0.44245357	-0.71483935	-0.33418014	0.13866560	-0.65189605	-0.37969423	-0.31002021
2017	20.16000000	0.91057846	0.20859090	-0.15012836	-0.64905148	0.15719009	-0.62596847	-0.08558882	-0.80506216	-0.06757909	-0.84019367	-0.09299267	0.09158863	-0.60366052	0.47343102	0.27942892	-0.65640432	0.20599820	0.44653751	-0.72310485	-0.31943739	0.11530489	-0.65904692	-0.38033428	-0.29999179
2018	20.17000000	0.91313879	0.21084954	-0.15048531	-0.65582200	0.15674787	-0.62396790	-0.11571746	-0.80018089	-0.07348645	-0.84580872	-0.08555080	0.08654664	-0.59946293	0.47261251	0.28175141	-0.65993684	0.20747705	0.44691385	-0.73202701	-0.30575208	0.08276178	-0.65775722	-0.37928927	-0.29769643
